<svg id="Icon_ionic-logo-instagram" data-name="Icon ionic-logo-instagram" xmlns="http://www.w3.org/2000/svg" width="21.951" height="21.951" viewBox="0 0 21.951 21.951">
  <path id="Path_263" data-name="Path 263" d="M20.049,6.329A4.587,4.587,0,0,1,24.622,10.9v9.146a4.587,4.587,0,0,1-4.573,4.573H10.9a4.587,4.587,0,0,1-4.573-4.573V10.9A4.587,4.587,0,0,1,10.9,6.329h9.146m0-1.829H10.9a6.421,6.421,0,0,0-6.4,6.4v9.146a6.421,6.421,0,0,0,6.4,6.4h9.146a6.421,6.421,0,0,0,6.4-6.4V10.9a6.421,6.421,0,0,0-6.4-6.4Z" transform="translate(-4.5 -4.5)"/>
  <path id="Path_264" data-name="Path 264" d="M25,11.744a1.372,1.372,0,1,1,1.372-1.372A1.369,1.369,0,0,1,25,11.744Z" transform="translate(-8.076 -5.341)"/>
  <path id="Path_265" data-name="Path 265" d="M16.738,13.079a3.659,3.659,0,1,1-3.659,3.659,3.662,3.662,0,0,1,3.659-3.659m0-1.829a5.488,5.488,0,1,0,5.488,5.488,5.489,5.489,0,0,0-5.488-5.488Z" transform="translate(-5.762 -5.762)"/>
</svg>
